# xmcd CD database file
# Copyright (C) 1997 Ti Kan
# 
# Track frame offsets:
#     150
#     19912
#     43425
#     71442
#     93712
#     122670
#     140015
#     168890
#     190695
#     222990
#     245032
#     272010
#     293775
#     308805
# 
# Disc length: 4392 seconds
# 
# Revision: 1
# Processed by: cddbd v1.4b41PL1 Copyright (c) Steve Scherf et al.
# Submitted via: DiscPlay 4.0.4
# 
DISCID=d811260e
DTITLE=Scorpions - Greatest Ballads
DYEAR=1900
DGENRE=
TTITLE0=White Dove
TTITLE1=Wind of Change
TTITLE2=Still Loving You
TTITLE3=Always Somewhere
TTITLE4=Holiday
TTITLE5=When The Smoke Is Going Down
TTITLE6=Lady Starlight
TTITLE7=Walking On the Edge
TTITLE8=Born To Touch Your Felelings
TTITLE9=Under The Same Sun
TTITLE10=Woman
TTITLE11=Lonely Nights
TTITLE12=Destiny
TTITLE13=Send Me An Angel
EXTD=
EXTT0=
EXTT1=
EXTT2=
EXTT3=
EXTT4=
EXTT5=
EXTT6=
EXTT7=
EXTT8=
EXTT9=
EXTT10=
EXTT11=
EXTT12=
EXTT13=
PLAYORDER=
